<?xml version="1.0" encoding="UTF-8"?>
<!-- Do not edit this file with editors other than diagrams.net -->
<!DOCTYPE svg PUBLIC "-//W3C//DTD SVG 1.1//EN" "http://www.w3.org/Graphics/SVG/1.1/DTD/svg11.dtd">
<svg xmlns="http://www.w3.org/2000/svg" xmlns:xlink="http://www.w3.org/1999/xlink" version="1.1" width="80px"
	height="80px" viewBox="-0.5 -0.5 80 80">
	<defs />
	<g>
		<path d="M 21 46 L 61 46 L 61 56 L 21 56 L 21 46 Z" fill="#c0c0c0" stroke="none" transform="rotate(-45,41,51)"
			pointer-events="all" />
		<path d="M 21 46 L 21 56 L 21 56 L 61 56 L 61 46 L 21 46" fill="none" stroke="none" transform="rotate(-45,41,51)"
			pointer-events="all" />
		<path d="M 21 46 L 61 46 L 61 56 L 21 56 L 21 46 Z" fill="none" stroke="none" transform="rotate(-45,41,51)"
			pointer-events="all" />
		<path d="M 21 24 L 61 24 L 61 34 L 21 34 L 21 24 Z" fill="#c0c0c0" stroke="none" transform="rotate(45,41,29)"
			pointer-events="all" />
		<path d="M 21 24 L 21 34 L 21 34 L 61 34 L 61 24 L 21 24" fill="none" stroke="none" transform="rotate(45,41,29)"
			pointer-events="all" />
		<path d="M 21 24 L 61 24 L 61 34 L 21 34 L 21 24 Z" fill="none" stroke="none" transform="rotate(45,41,29)"
			pointer-events="all" />
	</g>
</svg>
